<?xml version="1.0" encoding="UTF-8"?>
<svg id="Layer_1" xmlns="http://www.w3.org/2000/svg" version="1.1" viewBox="0 0 1080 1080">
  <!-- Generator: Adobe Illustrator 30.3.0, SVG Export Plug-In . SVG Version: 2.1.3 Build 182)  -->
  <defs>
    <style>
      .st0 {
        fill: #fff;
      }

      .st1 {
        display: none;
        fill: #16b04b;
      }
    </style>
  </defs>
  <rect class="st1" x="3.75" y="4.5" width="1073.5" height="1073.5" rx="44" ry="44"/>
  <g>
    <path class="st0" d="M636.37,353.86c4.05,5.88,9.57,14.44,15.45,25.5,0,0,2.91-62.91,34.54-99.97,0,0-20.06,45.9-23.97,111.53,0,0,13.77-31.96,67.16-51.69,0,0,22.9-54.29-14.96-123.43-12.62,4.81-27.81,12.11-43.4,23.42-35.11,25.47-53.09,57.33-61.56,75.64,2.23,3.62,5.63,9,9.97,15.41,7.47,11.04,11.31,15.64,16.78,23.58Z"/>
    <path class="st0" d="M692.63,381.61c-12.07,13.89-16.61,32.86-17.68,51.23-1.07,18.37.93,36.81.04,55.19-.89,18.38-5.06,37.38-16.72,51.61,51.61-35.59,97.05-79.35,133.37-130.45-6,24.68-22.9,43.87-39.66,62.96-37.45,42.66-75.29,85.67-120.52,119.87-1.2.91-.25,2.81,1.19,2.36,47.46-14.78,96.92-32.41,138.2-59.54,43.45-28.57,79.7-72.38,86.86-123.88,5.16-37.13-7.24-74.94-18.37-110.73-28.07,28.56-68.08,40.98-105.25,55.88-15.21,6.1-30.7,13.14-41.45,25.5Z"/>
    <path class="st0" d="M907.52,553.97c-24.23-11.09-51.46-17.92-77.6-12.73-27.02,5.36-49.81,22.73-72.42,38.47-20.98,14.6-44.16,28.65-69.4,30.33-1.07.07-1.25,1.56-.22,1.85,14.78,4.11,35.75,8.04,60.47,6.29,32.24-2.28,45.69-12.44,75.71-14.05,16.67-.9,41.42.69,72.44,13.81-25.02-6.97-51.71-4.17-77.18.93-25.47,5.1-50.6,12.45-76.48,14.52-48.36,3.87-98.04-9.87-145.62-.42,65.5,11.67,116.11,71.36,182.36,77.39,41.71,3.8,81.99-14.57,119.03-34.12,37.04-19.55,73.98-41.92,115.7-45.53-33.09-29.01-66.79-58.42-106.8-76.73Z"/>
    <path class="st0" d="M552.04,649.69s.68,78.21-6.8,140.77c-7.48-62.57-6.8-140.77-6.8-140.77-187.02,25.84-109.25,132.96-85.35,150.29,31.21,22.63,92.15,75.93,92.15,75.93,0,0,60.94-53.3,92.15-75.93,23.9-17.33,101.67-124.45-85.35-150.29Z"/>
    <path class="st0" d="M484.03,570.12c32.64,25.84,53.73,52.37,53.73,52.37-7.48-53.73,7.48-221.02,7.48-221.02,0,0,14.96,167.3,7.48,221.02,0,0,21.08-26.52,53.73-52.37,32.64-25.84,74.13-110.85,17-197.22-57.13-86.37-78.21-121.05-78.21-121.05,0,0-21.08,34.68-78.21,121.05-57.13,86.37-15.64,171.38,17,197.22Z"/>
    <path class="st0" d="M428.1,390.92c-3.91-65.63-23.97-111.53-23.97-111.53,31.62,37.06,34.54,99.97,34.54,99.97,5.88-11.06,11.4-19.62,15.45-25.5,5.47-7.94,9.3-12.54,16.78-23.58,4.34-6.41,7.74-11.8,9.97-15.41-8.47-18.31-26.45-50.17-61.56-75.64-15.59-11.31-30.78-18.61-43.4-23.42-37.86,69.14-14.96,123.43-14.96,123.43,53.39,19.72,67.16,51.69,67.16,51.69Z"/>
    <path class="st0" d="M319.64,534.84c41.27,27.13,90.74,44.76,138.2,59.54,1.44.45,2.39-1.45,1.19-2.36-45.22-34.2-83.07-77.22-120.52-119.87-16.76-19.09-33.66-38.28-39.66-62.96,36.32,51.1,81.75,94.86,133.37,130.45-11.67-14.23-15.83-33.23-16.72-51.61-.89-18.38,1.11-36.82.04-55.19-1.07-18.37-5.61-37.34-17.68-51.23-10.74-12.37-26.24-19.41-41.45-25.5-37.17-14.9-77.18-27.32-105.25-55.88-11.13,35.79-23.53,73.6-18.37,110.73,7.15,51.5,43.41,95.32,86.86,123.88Z"/>
    <path class="st0" d="M347.63,633.39c-25.89-2.07-51.02-9.42-76.48-14.52-25.47-5.1-52.16-7.9-77.18-.93,31.03-13.13,55.77-14.71,72.44-13.81,30.02,1.61,43.47,11.77,75.71,14.05,24.72,1.75,45.69-2.18,60.47-6.29,1.03-.29.85-1.78-.22-1.85-25.24-1.68-48.43-15.72-69.4-30.33-22.61-15.74-45.4-33.11-72.42-38.47-26.14-5.18-53.37,1.64-77.6,12.73-40.01,18.32-73.71,47.73-106.8,76.73,41.72,3.62,78.67,25.98,115.7,45.53,37.04,19.55,77.32,37.92,119.03,34.12,66.26-6.04,116.86-65.72,182.36-77.39-47.58-9.45-97.26,4.29-145.62.42Z"/>
  </g>
</svg>